<svg width="24" height="24" viewBox="0 0 24 24" fill="none" xmlns="http://www.w3.org/2000/svg">
<path d="M11.5025 1.67328C11.813 1.54756 12.1608 1.54744 12.4713 1.67328L12.6226 1.74652L12.7525 1.83441C12.8698 1.92929 12.954 2.04157 13.0142 2.1391C13.096 2.27153 13.1621 2.42354 13.2193 2.57465C13.3325 2.87409 13.4515 3.28465 13.5953 3.77972L14.8765 8.19183C15 8.6167 15.0305 8.69488 15.0679 8.7514C15.1123 8.81826 15.1699 8.87605 15.2369 8.92035C15.2934 8.9576 15.3723 8.98756 15.7964 9.11078L20.2086 10.393C20.7037 10.5368 21.1143 10.6557 21.4136 10.769C21.5647 10.8262 21.7159 10.8923 21.8482 10.9741C21.9459 11.0344 22.0589 11.1182 22.1539 11.2358L22.2418 11.3657L22.315 11.517C22.4614 11.879 22.4372 12.2921 22.2418 12.6371C22.135 12.8256 21.9785 12.9482 21.8482 13.0287C21.7158 13.1105 21.5648 13.1766 21.4136 13.2338C21.1142 13.3471 20.7038 13.4659 20.2086 13.6098L15.7964 14.8911C15.3711 15.0146 15.2934 15.0451 15.2369 15.0825C15.1698 15.1269 15.1124 15.1843 15.0679 15.2514C15.0306 15.308 15.0001 15.3857 14.8765 15.811L13.5953 20.2231C13.4514 20.7183 13.3326 21.1288 13.2193 21.4282C13.1621 21.5793 13.096 21.7303 13.0142 21.8627C12.9337 21.9931 12.8111 22.1495 12.6226 22.2563C12.2283 22.4796 11.7455 22.4793 11.3511 22.2563C11.1628 22.1496 11.0401 21.993 10.9595 21.8627C10.8778 21.7304 10.8116 21.5792 10.7545 21.4282C10.6412 21.1288 10.5223 20.7182 10.3785 20.2231L9.09625 15.811C8.97304 15.3868 8.94307 15.3079 8.90582 15.2514C8.86152 15.1845 8.80374 15.1269 8.73688 15.0825C8.68035 15.0451 8.60219 15.0145 8.17731 14.8911L3.7652 13.6098C3.27012 13.466 2.85957 13.3471 2.56012 13.2338C2.40901 13.1767 2.257 13.1105 2.12457 13.0287C1.99437 12.9483 1.83873 12.8253 1.73199 12.6371C1.50864 12.2427 1.50873 11.7601 1.73199 11.3657L1.81989 11.2358C1.91483 11.1182 2.0269 11.0344 2.12457 10.9741C2.25709 10.8922 2.40886 10.8262 2.56012 10.769C2.85958 10.6557 3.26994 10.5369 3.7652 10.393L8.17731 9.11078C8.60223 8.98734 8.68035 8.95774 8.73688 8.92035C8.80387 8.87597 8.86144 8.81839 8.90582 8.7514C8.94321 8.69488 8.97282 8.61672 9.09625 8.19183L10.3785 3.77972C10.5223 3.28449 10.6412 2.87411 10.7545 2.57465C10.8117 2.4234 10.8777 2.27161 10.9595 2.1391C11.0401 2.00878 11.1627 1.85323 11.3511 1.74652L11.5025 1.67328ZM11.9703 3.03461C11.8797 3.2741 11.777 3.62407 11.6265 4.14203L10.3453 8.55414C10.2449 8.89962 10.1619 9.20797 9.98981 9.4682C9.84894 9.68109 9.66656 9.86347 9.45367 10.0043C9.19343 10.1764 8.88511 10.2594 8.53961 10.3598L4.1275 11.6411C3.60952 11.7915 3.25958 11.8942 3.02008 11.9848C3.00593 11.9902 2.99265 11.9964 2.98004 12.0014C2.99253 12.0064 3.00608 12.0127 3.02008 12.018C3.25958 12.1086 3.60975 12.2114 4.1275 12.3618L8.53961 13.643C8.88496 13.7433 9.19352 13.8255 9.45367 13.9975C9.66661 14.1384 9.84894 14.3216 9.98981 14.5346C10.1617 14.7948 10.2449 15.1033 10.3453 15.4487L11.6265 19.8598C11.777 20.378 11.8797 20.7287 11.9703 20.9682C11.9755 20.9819 11.982 20.995 11.9869 21.0073C11.9918 20.9949 11.9982 20.982 12.0035 20.9682C12.0941 20.7287 12.1967 20.3781 12.3472 19.8598L13.6285 15.4487C13.7288 15.1032 13.811 14.7948 13.983 14.5346C14.1239 14.3214 14.3069 14.1385 14.5201 13.9975C14.7803 13.8255 15.0887 13.7434 15.4341 13.643L19.8453 12.3618C20.3636 12.2112 20.7141 12.1086 20.9537 12.018C20.9675 12.0127 20.9803 12.0063 20.9927 12.0014C20.9804 11.9965 20.9674 11.99 20.9537 11.9848C20.7142 11.8942 20.3635 11.7916 19.8453 11.6411L15.4341 10.3598C15.0887 10.2595 14.7803 10.1763 14.5201 10.0043C14.3071 9.86347 14.1239 9.68113 13.983 9.4682C13.8109 9.20806 13.7288 8.89948 13.6285 8.55414L12.3472 4.14203C12.1968 3.62429 12.094 3.27411 12.0035 3.03461C11.9982 3.02061 11.9918 3.00705 11.9869 2.99457C11.9819 3.00716 11.9756 3.02047 11.9703 3.03461ZM19.441 15.3539C19.4927 15.1962 19.7164 15.1962 19.7681 15.3539L20.2291 16.7592C20.2802 16.9149 20.4025 17.0371 20.5582 17.0883L21.9644 17.5502C22.1218 17.6021 22.1218 17.8245 21.9644 17.8764L20.5582 18.3373C20.4024 18.3885 20.2802 18.5116 20.2291 18.6674L19.7681 20.0727C19.7164 20.2304 19.4927 20.2304 19.441 20.0727L18.98 18.6674C18.9289 18.5116 18.8068 18.3885 18.6509 18.3373L17.2457 17.8764C17.0879 17.8247 17.0879 17.602 17.2457 17.5502L18.6509 17.0883C18.8068 17.0372 18.9289 16.915 18.98 16.7592L19.441 15.3539ZM5.15582 2.97504C5.20774 2.81768 5.43016 2.8176 5.48199 2.97504L5.94293 4.38129C5.99407 4.53692 6.11641 4.65922 6.27203 4.71039L7.67828 5.17133C7.83581 5.22311 7.83571 5.4456 7.67828 5.4975L6.27203 5.95941C6.11641 6.01062 5.99402 6.13283 5.94293 6.28851L5.48199 7.69379C5.43024 7.85151 5.20757 7.85151 5.15582 7.69379L4.69391 6.28851C4.64278 6.13269 4.52063 6.01054 4.36481 5.95941L2.95953 5.4975C2.80181 5.44575 2.80181 5.22308 2.95953 5.17133L4.36481 4.71039C4.52051 4.6593 4.6427 4.53693 4.69391 4.38129L5.15582 2.97504Z" fill="black"/>
</svg>
