<svg width="24" height="24" viewBox="0 0 24 24" fill="none" xmlns="http://www.w3.org/2000/svg">
<path d="M18.5027 1.52698C18.8615 1.52721 19.1521 1.81858 19.1522 2.17737L19.1522 19.0358H17.8524V2.82776L4.37579 2.82776L4.37579 21.2506L19.3885 21.2506V22.5504L3.7254 22.5504C3.36642 22.5504 3.07501 22.259 3.07501 21.9L3.07501 2.17737C3.07504 2.00502 3.14357 1.83928 3.26544 1.71741C3.38733 1.59555 3.55304 1.52698 3.7254 1.52698L18.5027 1.52698ZM16.1805 15.7047L6.04865 15.7047V14.4039L16.1805 14.4039V15.7047ZM12.3504 12.0953L6.04865 12.0953V10.7946L12.3504 10.7946V12.0953ZM12.3504 8.48499H6.04865V7.1842L12.3504 7.1842V8.48499Z" fill="black"/>
</svg>
