<svg width="24" height="24" viewBox="0 0 24 24" fill="none" xmlns="http://www.w3.org/2000/svg">
<path d="M14.843 6.37518L16.6696 6.37518C18.5179 6.37518 20.0179 7.83963 20.0241 9.65012C20.0304 11.4693 18.5267 12.9473 16.6696 12.9473H7.78976C5.95188 12.9473 4.46026 14.4035 4.45406 16.2039C4.44783 18.0128 5.94309 19.4825 7.78976 19.4825H20.5M18.4346 17.1378L20.9793 19.4825L18.4346 21.9753" stroke="black" stroke-width="1.3"/>
<path d="M9.1348 7.80991L7.95908 11.3931C7.92897 11.4848 7.79916 11.4848 7.76905 11.3931L6.59332 7.80991C6.5834 7.77969 6.5597 7.75599 6.52948 7.74607L2.94631 6.57034C2.85455 6.54023 2.85455 6.41042 2.94631 6.38031L6.52948 5.20459C6.5597 5.19467 6.5834 5.17097 6.59332 5.14075L7.76905 1.55758C7.79916 1.46581 7.92897 1.46581 7.95908 1.55758L9.1348 5.14075C9.14472 5.17097 9.16842 5.19467 9.19864 5.20459L12.7818 6.38031C12.8736 6.41042 12.8736 6.54023 12.7818 6.57034L9.19864 7.74607C9.16842 7.75599 9.14472 7.77969 9.1348 7.80991Z" fill="black"/>
</svg>
