<svg width="24" height="24" viewBox="0 0 24 24" fill="none" xmlns="http://www.w3.org/2000/svg">
<path d="M19 3L20 4" stroke="black" stroke-width="1.3" stroke-linecap="round" stroke-linejoin="round"/>
<path d="M20 2L15.5 6.5" stroke="black" stroke-width="1.3" stroke-linecap="round" stroke-linejoin="round"/>
<path d="M14 10C15.1046 10 16 9.10457 16 8C16 6.89543 15.1046 6 14 6C12.8954 6 12 6.89543 12 8C12 9.10457 12.8954 10 14 10Z" stroke="black" stroke-width="1.3" stroke-linecap="round" stroke-linejoin="round"/>
<path d="M4 17L4 2.6C4 2.26863 4.26863 2 4.6 2L14.5 2M4 17L4 21.4C4 21.7314 4.26863 22 4.6 22L19.4 22C19.7314 22 20 21.7314 20 21.4L20 17M4 17L20 17M20 17L20 16.4329L20 7.5" stroke="black" stroke-width="1.3" stroke-linejoin="round"/>
</svg>
