<svg width="24" height="24" viewBox="0 0 24 24" fill="none" xmlns="http://www.w3.org/2000/svg">
<path d="M2.24225 5.87438L1.78739 5.41004C1.66258 5.53231 1.59225 5.69966 1.59225 5.87438C1.59225 6.04909 1.66258 6.21645 1.78739 6.33871L2.24225 5.87438ZM5.77281 2.41589L6.22767 1.95156C5.97496 1.70401 5.57067 1.70401 5.31796 1.95156L5.77281 2.41589ZM9.30338 5.87438V5.22438C9.13331 5.22438 8.97001 5.29103 8.84852 5.41004L9.30338 5.87438ZM5.77281 9.33286L5.31796 9.7972C5.57067 10.0448 5.97496 10.0448 6.22767 9.7972L5.77281 9.33286ZM16.8575 5.87438V6.52438V5.87438ZM7.60301 12.7238L7.603 13.3738H7.60301V12.7238ZM7.60301 19.5347V18.8847V19.5347ZM4.12658 16.1177L4.77657 16.12L4.12658 16.1177ZM20.3536 9.28748L21.0036 9.28523L20.3536 9.28748ZM21.3491 19.689L21.8039 20.1534L22.2779 19.689L21.8039 19.2247L21.3491 19.689ZM2.24225 5.87438L2.6971 6.33871L6.22767 2.88023L5.77281 2.41589L5.31796 1.95156L1.78739 5.41004L2.24225 5.87438ZM9.30338 5.87438L8.84852 5.41004L5.31796 8.86853L5.77281 9.33286L6.22767 9.7972L9.75823 6.33871L9.30338 5.87438ZM5.77281 9.33286L6.22767 8.86853L2.6971 5.41004L2.24225 5.87438L1.78739 6.33871L5.31796 9.7972L5.77281 9.33286ZM5.77281 2.41589L5.31796 2.88023L7.40468 4.92435L7.85954 4.46001L8.31439 3.99568L6.22767 1.95156L5.77281 2.41589ZM9.30338 5.87438V6.52438H16.8575V5.87438V5.22438H9.30338V5.87438ZM16.8575 12.7238V12.0738H7.60301V12.7238V13.3738H16.8575V12.7238ZM7.60301 19.5347V20.1847L20.342 20.1847V19.5347V18.8847L7.60301 18.8847V19.5347ZM4.12658 16.1177L3.47658 16.1155C3.4688 18.3733 5.33134 20.1847 7.60301 20.1847V19.5347V18.8847C6.02552 18.8847 4.77136 17.6327 4.77657 16.12L4.12658 16.1177ZM7.60301 12.7238V12.0738C5.34212 12.0738 3.48432 13.8686 3.47658 16.1155L4.12658 16.1177L4.77657 16.12C4.78176 14.6143 6.03307 13.3738 7.603 13.3738L7.60301 12.7238ZM20.3536 9.28748L19.7036 9.28972C19.7088 10.8131 18.4459 12.0738 16.8575 12.0738V12.7238V13.3738C19.1401 13.3738 21.0114 11.5537 21.0036 9.28523L20.3536 9.28748ZM16.8575 5.87438V6.52438C18.4383 6.52438 19.6983 7.77347 19.7036 9.28972L20.3536 9.28748L21.0036 9.28523C20.9958 7.02775 19.1292 5.22438 16.8575 5.22438L16.8575 5.87438ZM18.697 17.0911L18.2421 17.5554L20.8942 20.1534L21.3491 19.689L21.8039 19.2247L19.1518 16.6268L18.697 17.0911ZM21.3491 19.689L20.8942 19.2247L18.2421 21.8226L18.697 22.287L19.1518 22.7513L21.8039 20.1534L21.3491 19.689Z" fill="black"/>
</svg>
