<svg width="24" height="24" viewBox="0 0 24 24" fill="none" xmlns="http://www.w3.org/2000/svg">
<path d="M18.0681 15.2886C18.1873 14.9674 18.6414 14.9673 18.7605 15.2886L19.1765 16.4117C19.3262 16.8162 19.645 17.135 20.0496 17.2847L21.1726 17.7007C21.4941 17.8199 21.4942 18.2751 21.1726 18.3941L20.0496 18.8091C19.6451 18.9588 19.3262 19.2778 19.1765 19.6822L18.7605 20.8052C18.6415 21.1269 18.1871 21.1269 18.0681 20.8052L17.6521 19.6822C17.5024 19.2778 17.1835 18.9588 16.7791 18.8091L15.656 18.3941C15.3343 18.2751 15.3343 17.8198 15.656 17.7007L16.7791 17.2847C17.1835 17.135 17.5024 16.8161 17.6521 16.4117L18.0681 15.2886ZM5.82007 2.27203C5.99593 1.79679 6.66765 1.79679 6.84351 2.27203L7.45776 3.93121C7.67896 4.52877 8.15022 5.00013 8.7478 5.22125L10.407 5.83453C10.8822 6.01039 10.8822 6.68309 10.407 6.85895L8.7478 7.47321C8.15022 7.69439 7.6789 8.16564 7.45776 8.76324L6.84351 10.4224C6.66747 10.8972 5.99606 10.8972 5.82007 10.4224L5.20581 8.76324C4.98466 8.16558 4.51343 7.69436 3.91577 7.47321L2.25659 6.85895C1.78139 6.68307 1.78136 6.01039 2.25659 5.83453L3.91577 5.22125C4.51334 5.00013 4.98461 4.52874 5.20581 3.93121L5.82007 2.27203Z" fill="black"/>
<path d="M16.3558 5.29004L19.4494 8.38363" stroke="black" stroke-width="1.3" stroke-linejoin="round"/>
<path d="M19.0071 2.63873L4.865 16.7809L3.98112 20.3164L7.51666 19.4325L21.6588 5.29038L19.0071 2.63873Z" stroke="black" stroke-width="1.3" stroke-linejoin="round"/>
</svg>
