<svg width="24" height="24" viewBox="0 0 24 24" fill="none" xmlns="http://www.w3.org/2000/svg">
<path d="M19.1591 16.5981C19.1591 15.2726 18.0846 14.1981 16.7591 14.1981C15.4336 14.1981 14.3591 15.2726 14.3591 16.5981V18.9981C14.3591 20.3236 15.4336 21.3981 16.7591 21.3981C18.0846 21.3981 19.1591 20.3236 19.1591 18.9981V16.5981Z" stroke="black" stroke-width="1.3" stroke-linecap="round" stroke-linejoin="round"/>
<path d="M9.55916 4.59812C9.55916 3.27264 8.48464 2.19812 7.15916 2.19812C5.83367 2.19812 4.75916 3.27264 4.75916 4.59812V6.99812C4.75916 8.3236 5.83367 9.39812 7.15916 9.39812C8.48464 9.39812 9.55916 8.3236 9.55916 6.99812V4.59812Z" stroke="black" stroke-width="1.3" stroke-linecap="round" stroke-linejoin="round"/>
<path d="M4.75916 21.3981H9.55916" stroke="black" stroke-width="1.3" stroke-linejoin="round"/>
<path d="M14.3591 9.39813H19.1591" stroke="black" stroke-width="1.3" stroke-linejoin="round"/>
<path d="M4.75916 14.1981H7.15916V21.3981" stroke="black" stroke-width="1.3" stroke-linejoin="round"/>
<path d="M14.3591 2.19812H16.7591V9.39812" stroke="black" stroke-width="1.3" stroke-linejoin="round"/>
</svg>
