<svg width="24" height="24" viewBox="0 0 24 24" fill="none" xmlns="http://www.w3.org/2000/svg">
<path d="M17.5209 8.66309C19.6849 8.6631 21.4397 10.418 21.4398 12.582L21.4398 18.7578C21.4397 20.9218 19.6849 22.6758 17.5209 22.6758C15.357 22.6756 13.6021 20.9217 13.6019 18.7578V12.582C13.602 10.4181 15.357 8.66327 17.5209 8.66309ZM17.8969 7.67773H16.597V7.51953L3.8363 7.51953L3.8363 19.1074C3.83638 19.9868 4.54877 20.7 5.4281 20.7002H12.5375V22H5.4281C3.8308 21.9998 2.5356 20.7048 2.53552 19.1074L2.53552 1.32324L17.8969 1.32324V7.67773ZM17.5209 9.96387C16.0749 9.96405 14.9028 11.1361 14.9027 12.582V18.7578C14.9029 20.2037 16.075 21.3758 17.5209 21.376C18.9669 21.376 20.1389 20.2038 20.139 18.7578L20.139 12.582C20.1389 11.136 18.967 9.96388 17.5209 9.96387ZM17.5746 11.1387C18.0666 11.1389 18.465 11.5373 18.4652 12.0293C18.4652 12.5215 18.0667 12.9206 17.5746 12.9209C17.0823 12.9209 16.683 12.5216 16.683 12.0293C16.6832 11.5372 17.0824 11.1387 17.5746 11.1387ZM3.8363 6.21875L16.597 6.21875V2.62402L3.8363 2.62402L3.8363 6.21875ZM13.6136 3.31836C14.2081 3.31843 14.6898 3.80104 14.6898 4.39551C14.6897 4.98987 14.208 5.47161 13.6136 5.47168C13.0192 5.47168 12.5376 4.98991 12.5375 4.39551C12.5375 3.801 13.0191 3.31836 13.6136 3.31836Z" fill="black"/>
</svg>
