<svg width="24" height="24" viewBox="0 0 24 24" fill="none" xmlns="http://www.w3.org/2000/svg">
<path d="M14.2676 17.75C14.2676 19.6001 15.7671 21.0996 17.6172 21.0996C19.4674 21.0996 20.9669 19.6002 20.9669 17.75H22.2676C22.2676 20.3181 20.1854 22.4004 17.6172 22.4004C15.0491 22.4004 12.9669 20.3181 12.9669 17.75H14.2676ZM11.7061 12.791L12.1651 13.251L11.7061 13.7109L9.20612 16.2109L8.28619 15.291L9.74225 13.835H4.39655V20.4961H12.2462V21.7959H3.74615C3.38732 21.7959 3.09601 21.5053 3.09576 21.1465V13.1846C3.09576 12.8256 3.38717 12.5342 3.74615 12.5342H9.60944L8.28619 11.2109L9.20612 10.291L11.7061 12.791ZM17.6172 11.6006C19.1036 11.6008 20.3085 12.8066 20.3087 14.293V17.209C20.3087 18.6954 19.1037 19.9012 17.6172 19.9014C16.1309 19.9012 14.9249 18.6954 14.9249 17.209V14.293C14.925 12.8066 16.1309 11.6008 17.6172 11.6006ZM17.6172 12.9014C16.8489 12.9016 16.2258 13.5246 16.2256 14.293V17.209C16.2256 17.9774 16.8488 18.6004 17.6172 18.6006C18.3857 18.6004 19.0089 17.9775 19.0089 17.209V14.293C19.0087 13.5246 18.3856 12.9015 17.6172 12.9014ZM19.4864 1.60059C19.8451 1.60085 20.1358 1.89216 20.1358 2.25098V10.751H18.836V2.90137H4.39655V9.68457H3.09576V2.25098C3.09576 1.89199 3.38717 1.60059 3.74615 1.60059H19.4864ZM16.2462 7.90234H7.14166V6.60156H16.2462V7.90234Z" fill="black"/>
</svg>
