<svg width="24" height="24" viewBox="0 0 24 24" fill="none" xmlns="http://www.w3.org/2000/svg">
<path d="M12.0225 14.7871C13.7465 14.7871 15.2887 15.5608 16.3252 16.7783L15.4023 17.7012C14.6049 16.7174 13.3877 16.0879 12.0225 16.0879C10.657 16.0879 9.43901 16.7171 8.6416 17.7012L7.71875 16.7773C8.7552 15.5599 10.2984 14.7871 12.0225 14.7871ZM12.0244 9.78711C15.1285 9.78711 17.9215 11.1163 19.8682 13.2354L18.9482 14.1553C17.2378 12.2713 14.7696 11.0879 12.0244 11.0879C9.27804 11.0879 6.80815 12.2718 5.09766 14.1572L4.17773 13.2363C6.12452 11.1161 8.91933 9.78711 12.0244 9.78711ZM12.0234 4.78711C16.5085 4.78711 20.5528 6.67415 23.4062 9.69727L22.4863 10.6172C19.8687 7.82933 16.1495 6.08789 12.0234 6.08789C7.89684 6.08789 4.17729 7.82972 1.55957 10.6182L0.639648 9.69824C3.49319 6.67454 7.53787 4.78711 12.0234 4.78711Z" fill="black"/>
<circle cx="12.002" cy="19.8127" r="0.9375" fill="black"/>
</svg>
