<svg width="24" height="24" viewBox="0 0 24 24" fill="none" xmlns="http://www.w3.org/2000/svg">
<path d="M20.888 10.4603C21.2469 10.4603 21.5383 10.7518 21.5384 11.1107V21.7777H20.2386V11.7611H19.1107V10.4603H20.888ZM11.761 20.4515H18.9124V21.7513H11.1107C10.7518 21.7512 10.4603 21.4599 10.4603 21.101V18.6664H11.761V20.4515ZM17.3333 2.46033C17.692 2.46056 17.9826 2.75198 17.9827 3.11072V16.891H16.6829V3.76111H3.76105V16.2406H12.888V17.5404H3.11066C2.75181 17.5403 2.46033 17.2499 2.46027 16.891V3.11072C2.46039 2.75191 2.75184 2.46044 3.11066 2.46033H17.3333ZM9.68683 13.7777H8.38702V6.66638H9.68683V13.7777ZM12.0569 12.2006H10.7571V8.28943H12.0569V12.2006ZM7.31671 11.4506H6.01593V8.99353H7.31671V11.4506ZM14.4271 11.2885H13.1273V9.51111H14.4271V11.2885Z" fill="black"/>
</svg>
