<svg width="24" height="24" viewBox="0 0 24 24" fill="none" xmlns="http://www.w3.org/2000/svg">
<path d="M9.01349 14.0271L9.01349 3.07131C9.01349 2.73994 9.28212 2.47131 9.61349 2.47131L19.8209 2.47132C20.1523 2.47132 20.4209 2.73994 20.4209 3.07132L20.4209 13.1042L20.4209 14.0271M9.01349 14.0271L9.01349 16.6056C9.01349 16.9369 9.28212 17.2056 9.61349 17.2056L19.8209 17.2056C20.1523 17.2056 20.4209 16.9369 20.4209 16.6056L20.4209 14.0271M9.01349 14.0271L20.4209 14.0271" stroke="black" stroke-width="1.3" stroke-linejoin="round"/>
<path d="M3.6922 18.4747L3.6922 7.46243C3.6922 7.13106 3.96083 6.86243 4.2922 6.86243L6.11026 6.86243M3.6922 18.4747L6.73988 18.4747M3.6922 18.4747L3.6922 20.9286C3.6922 21.26 3.96083 21.5286 4.2922 21.5286L14.4996 21.5286C14.831 21.5286 15.0996 21.26 15.0996 20.9286L15.0996 19.5271" stroke="black" stroke-width="1.3" stroke-linejoin="round"/>
</svg>
