<svg width="24" height="24" viewBox="0 0 24 24" fill="none" xmlns="http://www.w3.org/2000/svg">
<path d="M8.98203 21.75H4.25937C3.56384 21.75 3 21.1861 3 20.4906V2.85935C3 2.16382 3.56384 1.59998 4.25937 1.59998H13.7047C14.4002 1.59998 14.9641 2.16382 14.9641 2.85935V11.675M6.14844 4.74841H11.8156M22.3223 21.7057H13.3205C11.7748 21.7057 10.5218 20.4527 10.5218 18.907C10.5218 17.4434 11.6454 16.2426 13.077 16.1192C13.2004 14.6876 14.4011 13.564 15.8648 13.564C17.3284 13.564 18.5286 14.6876 18.652 16.1192C20.0839 16.2424 21.2077 17.4432 21.2077 18.907C21.2077 19.5836 20.9676 20.2041 20.568 20.688" stroke="black" stroke-width="1.3" stroke-linejoin="round"/>
</svg>
