<svg width="24" height="24" viewBox="0 0 24 24" fill="none" xmlns="http://www.w3.org/2000/svg">
<path d="M18.4489 8.5V2.56641H3.44891V21.4617H6.94891" stroke="black" stroke-width="1.3" stroke-linejoin="round"/>
<path d="M6.34442 7.00006H13.5534" stroke="black" stroke-width="1.3" stroke-linejoin="round"/>
<path d="M8.94891 21.3516V20.3926C8.94891 19.2899 9.53913 18.2744 10.4895 17.7419L15.0791 15.1705C15.8506 14.7374 16.3697 13.9279 16.3697 13.0007V11.7483C16.3697 10.365 15.2141 9.24353 13.7885 9.24353C12.363 9.24353 11.2074 10.365 11.2074 11.7483V13.0007C11.2074 13.9598 11.7628 14.7929 12.5785 15.2138M18.6313 21.3516V20.3926C18.6313 19.2899 18.0411 18.2744 17.0907 17.7419L14.8483 16.4855" stroke="black" stroke-width="1.3" stroke-linejoin="round"/>
<path d="M20.4568 9C21.3628 9.91223 21.9488 11.3644 21.9488 13C21.9488 14.6356 21.3628 16.0878 20.4568 17M18.6175 10.9782C19.1246 11.5282 19.4489 12.3691 19.4489 13.3115C19.4489 14.254 19.1246 15.0949 18.6175 15.6449" stroke="black" stroke-width="1.3" stroke-linejoin="round"/>
</svg>
