<svg width="683" height="683" viewBox="0 0 683 683" fill="none" xmlns="http://www.w3.org/2000/svg">
<path d="M636.302 628.868L522.814 200.209C501.99 108.57 432.076 46.8662 341.832 46.8662C341.728 46.8662 341.623 46.8852 341.519 46.8852C341.414 46.8852 341.31 46.8662 341.206 46.8662C250.962 46.8662 182.481 108.57 160.224 200.209V200.228L46.7261 628.868H47.1817L46.7261 630.586H126.862L257.15 141.59H425.888L556.176 630.586H636.312L635.856 628.868H636.312H636.302Z" fill="#040000"/>
<path d="M341.586 409.889C380.056 409.889 411.243 378.702 411.243 340.232C411.243 301.761 380.056 270.574 341.586 270.574C303.115 270.574 271.928 301.761 271.928 340.232C271.928 378.702 303.115 409.889 341.586 409.889Z" fill="#C7161E"/>
</svg>
