<svg width="1024" height="1024" viewBox="0 0 1024 1024" fill="none" xmlns="http://www.w3.org/2000/svg">
<rect width="1024" height="1024" fill="url(#paint0_linear_2507_95879)"/>
<path d="M806.802 713.868L693.314 285.209C672.49 193.57 602.576 131.866 512.332 131.866C512.228 131.866 512.123 131.885 512.019 131.885C511.914 131.885 511.81 131.866 511.706 131.866C421.462 131.866 352.981 193.57 330.724 285.209V285.228L217.226 713.868H217.682L217.226 715.586H297.362L427.65 226.59H596.388L726.676 715.586H806.812L806.356 713.868H806.812H806.802Z" fill="white"/>
<path d="M512.086 494.889C550.556 494.889 581.743 463.702 581.743 425.232C581.743 386.761 550.556 355.574 512.086 355.574C473.615 355.574 442.428 386.761 442.428 425.232C442.428 463.702 473.615 494.889 512.086 494.889Z" fill="#C7161E"/>
<path d="M177.914 866.801V849.842H204.17C209.103 849.842 212.879 848.838 215.498 846.83C218.16 844.779 219.492 841.854 219.492 838.056V837.926C219.492 835.437 218.881 833.32 217.658 831.574C216.48 829.828 214.69 828.519 212.289 827.646C209.932 826.773 206.986 826.336 203.45 826.336H177.914V811.146H201.682C206.484 811.146 210.129 810.164 212.617 808.199C215.148 806.191 216.414 803.42 216.414 799.884V799.753C216.414 796.479 215.258 793.926 212.944 792.092C210.631 790.215 207.466 789.277 203.45 789.277H177.914V772.318H209.867C216.109 772.318 221.456 773.279 225.908 775.199C230.404 777.12 233.853 779.848 236.254 783.384C238.654 786.92 239.855 791.154 239.855 796.086V796.217C239.855 799.797 239.025 803.049 237.367 805.973C235.708 808.898 233.438 811.32 230.557 813.241C227.72 815.118 224.511 816.297 220.932 816.777V817.235C225.254 817.453 229.16 818.566 232.652 820.574C236.144 822.539 238.916 825.18 240.968 828.497C243.019 831.771 244.045 835.481 244.045 839.628V839.759C244.045 845.215 242.692 849.973 239.986 854.033C237.279 858.092 233.46 861.235 228.527 863.461C223.595 865.687 217.746 866.801 210.98 866.801H177.914ZM165.867 866.801V772.318H189.896V866.801H165.867ZM301.494 868.503C293.331 868.503 286.194 867.041 280.083 864.116C273.972 861.191 269.236 857.088 265.875 851.806C262.514 846.525 260.833 840.348 260.833 833.277V772.318H284.863V830.985C284.863 834.652 285.518 837.795 286.827 840.414C288.137 843.033 290.014 845.062 292.458 846.503C294.946 847.9 297.98 848.598 301.56 848.598C305.139 848.598 308.173 847.9 310.661 846.503C313.149 845.062 315.026 843.033 316.292 840.414C317.558 837.795 318.19 834.652 318.19 830.985V772.318H342.22V833.277C342.22 840.305 340.54 846.481 337.179 851.806C333.861 857.088 329.147 861.191 323.036 864.116C316.968 867.041 309.788 868.503 301.494 868.503ZM399.735 868.503C391.877 868.503 385.046 867.39 379.24 865.164C373.479 862.894 368.961 859.642 365.687 855.408C362.457 851.174 360.645 846.045 360.252 840.021L360.187 838.842H382.514L382.645 839.497C383.082 841.549 384.086 843.338 385.657 844.866C387.272 846.35 389.324 847.529 391.812 848.402C394.3 849.231 397.072 849.646 400.127 849.646C403.314 849.646 406.042 849.231 408.312 848.402C410.625 847.529 412.415 846.35 413.681 844.866C414.947 843.382 415.58 841.658 415.58 839.693V839.628C415.58 836.965 414.423 834.914 412.11 833.473C409.796 831.989 405.867 830.723 400.324 829.676L390.633 827.777C381.292 826.031 374.177 822.888 369.288 818.348C364.443 813.765 362.02 807.85 362.02 800.604V800.539C362.02 794.471 363.635 789.211 366.865 784.759C370.096 780.263 374.526 776.793 380.157 774.348C385.832 771.86 392.27 770.616 399.473 770.616C407.373 770.616 414.096 771.795 419.639 774.152C425.183 776.465 429.461 779.739 432.473 783.973C435.528 788.207 437.187 793.183 437.449 798.902L437.514 800.277H415.187L415.121 799.556C414.86 797.461 414.052 795.672 412.699 794.187C411.346 792.703 409.556 791.547 407.33 790.717C405.104 789.888 402.55 789.473 399.669 789.473C396.744 789.473 394.256 789.888 392.205 790.717C390.153 791.547 388.582 792.681 387.49 794.122C386.443 795.519 385.919 797.112 385.919 798.902V798.967C385.919 801.499 387.076 803.507 389.389 804.991C391.703 806.475 395.391 807.697 400.455 808.658L410.145 810.491C416.867 811.757 422.389 813.547 426.711 815.86C431.032 818.174 434.24 821.12 436.336 824.699C438.431 828.235 439.479 832.535 439.479 837.598V837.664C439.479 843.949 437.907 849.406 434.764 854.033C431.621 858.66 427.082 862.239 421.145 864.771C415.209 867.259 408.072 868.503 399.735 868.503ZM457.314 866.801V772.318H481.344V866.801H457.314ZM502.388 866.801V772.318H522.817L568.519 838.253L551.037 826.795H560.989V772.318H584.954V866.801H564.787L518.954 800.277L536.305 811.735H526.418V866.801H502.388ZM605.998 866.801V772.318H670.754V791.634H630.027V810.295H668.331V828.366H630.027V847.485H670.754V866.801H605.998ZM727.482 868.503C719.625 868.503 712.794 867.39 706.988 865.164C701.226 862.894 696.708 859.642 693.435 855.408C690.204 851.174 688.393 846.045 688 840.021L687.935 838.842H710.262L710.393 839.497C710.829 841.549 711.833 843.338 713.405 844.866C715.02 846.35 717.071 847.529 719.56 848.402C722.048 849.231 724.819 849.646 727.875 849.646C731.062 849.646 733.79 849.231 736.06 848.402C738.373 847.529 740.163 846.35 741.429 844.866C742.694 843.382 743.327 841.658 743.327 839.693V839.628C743.327 836.965 742.171 834.914 739.857 833.473C737.544 831.989 733.615 830.723 728.071 829.676L718.381 827.777C709.04 826.031 701.925 822.888 697.036 818.348C692.19 813.765 689.768 807.85 689.768 800.604V800.539C689.768 794.471 691.383 789.211 694.613 784.759C697.843 780.263 702.274 776.793 707.905 774.348C713.579 771.86 720.018 770.616 727.22 770.616C735.121 770.616 741.843 771.795 747.387 774.152C752.931 776.465 757.208 779.739 760.22 783.973C763.276 788.207 764.935 793.183 765.196 798.902L765.262 800.277H742.935L742.869 799.556C742.607 797.461 741.8 795.672 740.446 794.187C739.093 792.703 737.304 791.547 735.077 790.717C732.851 789.888 730.298 789.473 727.417 789.473C724.492 789.473 722.004 789.888 719.952 790.717C717.901 791.547 716.329 792.681 715.238 794.122C714.19 795.519 713.667 797.112 713.667 798.902V798.967C713.667 801.499 714.823 803.507 717.137 804.991C719.45 806.475 723.139 807.697 728.202 808.658L737.893 810.491C744.615 811.757 750.137 813.547 754.458 815.86C758.78 818.174 761.988 821.12 764.083 824.699C766.179 828.235 767.226 832.535 767.226 837.598V837.664C767.226 843.949 765.655 849.406 762.512 854.033C759.369 858.66 754.829 862.239 748.893 864.771C742.956 867.259 735.819 868.503 727.482 868.503ZM821.532 868.503C813.675 868.503 806.844 867.39 801.038 865.164C795.276 862.894 790.758 859.642 787.485 855.408C784.254 851.174 782.443 846.045 782.05 840.021L781.985 838.842H804.312L804.443 839.497C804.879 841.549 805.883 843.338 807.455 844.866C809.07 846.35 811.121 847.529 813.61 848.402C816.098 849.231 818.869 849.646 821.925 849.646C825.111 849.646 827.84 849.231 830.11 848.402C832.423 847.529 834.213 846.35 835.479 844.866C836.744 843.382 837.377 841.658 837.377 839.693V839.628C837.377 836.965 836.221 834.914 833.907 833.473C831.594 831.989 827.665 830.723 822.121 829.676L812.431 827.777C803.09 826.031 795.975 822.888 791.086 818.348C786.24 813.765 783.818 807.85 783.818 800.604V800.539C783.818 794.471 785.433 789.211 788.663 784.759C791.893 780.263 796.324 776.793 801.955 774.348C807.629 771.86 814.068 770.616 821.27 770.616C829.171 770.616 835.893 771.795 841.437 774.152C846.981 776.465 851.258 779.739 854.27 783.973C857.326 788.207 858.985 793.183 859.246 798.902L859.312 800.277H836.985L836.919 799.556C836.657 797.461 835.85 795.672 834.496 794.187C833.143 792.703 831.354 791.547 829.127 790.717C826.901 789.888 824.348 789.473 821.467 789.473C818.542 789.473 816.054 789.888 814.002 790.717C811.951 791.547 810.379 792.681 809.288 794.122C808.24 795.519 807.717 797.112 807.717 798.902V798.967C807.717 801.499 808.873 803.507 811.187 804.991C813.5 806.475 817.189 807.697 822.252 808.658L831.943 810.491C838.665 811.757 844.187 813.547 848.508 815.86C852.83 818.174 856.038 821.12 858.133 824.699C860.229 828.235 861.276 832.535 861.276 837.598V837.664C861.276 843.949 859.705 849.406 856.562 854.033C853.419 858.66 848.879 862.239 842.943 864.771C837.006 867.259 829.869 868.503 821.532 868.503Z" fill="white"/>
<defs>
<linearGradient id="paint0_linear_2507_95879" x1="512" y1="0" x2="512" y2="1024" gradientUnits="userSpaceOnUse">
<stop stop-color="#313131"/>
<stop offset="1" stop-color="#141514"/>
</linearGradient>
</defs>
</svg>
