<svg width="684" height="683" viewBox="0 0 684 683" fill="none" xmlns="http://www.w3.org/2000/svg">
<path d="M636.802 628.868L523.314 200.209C502.49 108.57 432.576 46.8662 342.332 46.8662C342.228 46.8662 342.123 46.8852 342.019 46.8852C341.914 46.8852 341.81 46.8662 341.706 46.8662C251.462 46.8662 182.981 108.57 160.724 200.209V200.228L47.2261 628.868H47.6817L47.2261 630.586H127.362L257.65 141.59H426.388L556.676 630.586H636.812L636.356 628.868H636.812H636.802Z" fill="white"/>
<path d="M342.086 409.889C380.556 409.889 411.743 378.702 411.743 340.232C411.743 301.761 380.556 270.574 342.086 270.574C303.615 270.574 272.428 301.761 272.428 340.232C272.428 378.702 303.615 409.889 342.086 409.889Z" fill="#C7161E"/>
</svg>
