<svg width="1024" height="1024" viewBox="0 0 1024 1024" fill="none" xmlns="http://www.w3.org/2000/svg">
<rect width="1024" height="1024" fill="white"/>
<path d="M807.302 713.868L693.814 285.209C672.99 193.57 603.076 131.866 512.832 131.866C512.728 131.866 512.623 131.885 512.519 131.885C512.414 131.885 512.31 131.866 512.206 131.866C421.962 131.866 353.481 193.57 331.224 285.209V285.228L217.726 713.868H218.182L217.726 715.586H297.862L428.15 226.59H596.888L727.176 715.586H807.312L806.856 713.868H807.312H807.302Z" fill="#040000"/>
<path d="M512.586 494.889C551.056 494.889 582.243 463.702 582.243 425.232C582.243 386.761 551.056 355.574 512.586 355.574C474.115 355.574 442.928 386.761 442.928 425.232C442.928 463.702 474.115 494.889 512.586 494.889Z" fill="#C7161E"/>
<path d="M178.914 866.801V849.842H205.17C210.103 849.842 213.879 848.838 216.498 846.83C219.16 844.779 220.492 841.854 220.492 838.056V837.926C220.492 835.437 219.881 833.32 218.658 831.574C217.48 829.828 215.69 828.519 213.289 827.646C210.932 826.773 207.986 826.336 204.45 826.336H178.914V811.146H202.682C207.484 811.146 211.129 810.164 213.617 808.199C216.149 806.191 217.414 803.42 217.414 799.884V799.753C217.414 796.479 216.258 793.926 213.944 792.092C211.631 790.215 208.466 789.277 204.45 789.277H178.914V772.318H210.867C217.109 772.318 222.456 773.279 226.908 775.199C231.404 777.12 234.853 779.848 237.254 783.384C239.654 786.92 240.855 791.154 240.855 796.086V796.217C240.855 799.797 240.025 803.049 238.367 805.973C236.708 808.898 234.438 811.32 231.557 813.241C228.72 815.118 225.512 816.297 221.932 816.777V817.235C226.254 817.453 230.16 818.566 233.652 820.574C237.145 822.539 239.916 825.18 241.968 828.497C244.02 831.771 245.045 835.481 245.045 839.628V839.759C245.045 845.215 243.692 849.973 240.986 854.033C238.279 858.092 234.46 861.235 229.527 863.461C224.595 865.687 218.746 866.801 211.98 866.801H178.914ZM166.867 866.801V772.318H190.897V866.801H166.867ZM302.494 868.503C294.331 868.503 287.195 867.041 281.083 864.116C274.972 861.191 270.236 857.088 266.875 851.806C263.514 846.525 261.833 840.348 261.833 833.277V772.318H285.863V830.985C285.863 834.652 286.518 837.795 287.827 840.414C289.137 843.033 291.014 845.062 293.458 846.503C295.947 847.9 298.98 848.598 302.56 848.598C306.139 848.598 309.173 847.9 311.661 846.503C314.149 845.062 316.026 843.033 317.292 840.414C318.558 837.795 319.191 834.652 319.191 830.985V772.318H343.22V833.277C343.22 840.305 341.54 846.481 338.179 851.806C334.861 857.088 330.147 861.191 324.036 864.116C317.968 867.041 310.788 868.503 302.494 868.503ZM400.735 868.503C392.877 868.503 386.046 867.39 380.241 865.164C374.479 862.894 369.961 859.642 366.687 855.408C363.457 851.174 361.645 846.045 361.252 840.021L361.187 838.842H383.514L383.645 839.497C384.082 841.549 385.086 843.338 386.657 844.866C388.272 846.35 390.324 847.529 392.812 848.402C395.3 849.231 398.072 849.646 401.127 849.646C404.314 849.646 407.042 849.231 409.312 848.402C411.626 847.529 413.415 846.35 414.681 844.866C415.947 843.382 416.58 841.658 416.58 839.693V839.628C416.58 836.965 415.423 834.914 413.11 833.473C410.796 831.989 406.868 830.723 401.324 829.676L391.633 827.777C382.292 826.031 375.177 822.888 370.288 818.348C365.443 813.765 363.02 807.85 363.02 800.604V800.539C363.02 794.471 364.635 789.211 367.866 784.759C371.096 780.263 375.526 776.793 381.157 774.348C386.832 771.86 393.27 770.616 400.473 770.616C408.374 770.616 415.096 771.795 420.639 774.152C426.183 776.465 430.461 779.739 433.473 783.973C436.528 788.207 438.187 793.183 438.449 798.902L438.514 800.277H416.187L416.122 799.556C415.86 797.461 415.052 795.672 413.699 794.187C412.346 792.703 410.556 791.547 408.33 790.717C406.104 789.888 403.55 789.473 400.669 789.473C397.745 789.473 395.256 789.888 393.205 790.717C391.153 791.547 389.582 792.681 388.491 794.122C387.443 795.519 386.919 797.112 386.919 798.902V798.967C386.919 801.499 388.076 803.507 390.389 804.991C392.703 806.475 396.391 807.697 401.455 808.658L411.145 810.491C417.868 811.757 423.389 813.547 427.711 815.86C432.032 818.174 435.241 821.12 437.336 824.699C439.431 828.235 440.479 832.535 440.479 837.598V837.664C440.479 843.949 438.907 849.406 435.764 854.033C432.622 858.66 428.082 862.239 422.145 864.771C416.209 867.259 409.072 868.503 400.735 868.503ZM458.314 866.801V772.318H482.344V866.801H458.314ZM503.388 866.801V772.318H523.817L569.519 838.253L552.037 826.795H561.989V772.318H585.954V866.801H565.787L519.954 800.277L537.305 811.735H527.418V866.801H503.388ZM606.998 866.801V772.318H671.754V791.634H631.028V810.295H669.331V828.366H631.028V847.485H671.754V866.801H606.998ZM728.482 868.503C720.625 868.503 713.794 867.39 707.988 865.164C702.226 862.894 697.708 859.642 694.435 855.408C691.204 851.174 689.393 846.045 689 840.021L688.935 838.842H711.262L711.393 839.497C711.829 841.549 712.833 843.338 714.405 844.866C716.02 846.35 718.072 847.529 720.56 848.402C723.048 849.231 725.82 849.646 728.875 849.646C732.062 849.646 734.79 849.231 737.06 848.402C739.373 847.529 741.163 846.35 742.429 844.866C743.695 843.382 744.328 841.658 744.328 839.693V839.628C744.328 836.965 743.171 834.914 740.857 833.473C738.544 831.989 734.615 830.723 729.072 829.676L719.381 827.777C710.04 826.031 702.925 822.888 698.036 818.348C693.191 813.765 690.768 807.85 690.768 800.604V800.539C690.768 794.471 692.383 789.211 695.613 784.759C698.843 780.263 703.274 776.793 708.905 774.348C714.579 771.86 721.018 770.616 728.22 770.616C736.121 770.616 742.843 771.795 748.387 774.152C753.931 776.465 758.208 779.739 761.22 783.973C764.276 788.207 765.935 793.183 766.197 798.902L766.262 800.277H743.935L743.869 799.556C743.607 797.461 742.8 795.672 741.447 794.187C740.093 792.703 738.304 791.547 736.078 790.717C733.851 789.888 731.298 789.473 728.417 789.473C725.492 789.473 723.004 789.888 720.953 790.717C718.901 791.547 717.329 792.681 716.238 794.122C715.191 795.519 714.667 797.112 714.667 798.902V798.967C714.667 801.499 715.824 803.507 718.137 804.991C720.451 806.475 724.139 807.697 729.203 808.658L738.893 810.491C745.615 811.757 751.137 813.547 755.458 815.86C759.78 818.174 762.988 821.12 765.083 824.699C767.179 828.235 768.226 832.535 768.226 837.598V837.664C768.226 843.949 766.655 849.406 763.512 854.033C760.369 858.66 755.829 862.239 749.893 864.771C743.956 867.259 736.82 868.503 728.482 868.503ZM822.532 868.503C814.675 868.503 807.844 867.39 802.038 865.164C796.276 862.894 791.758 859.642 788.485 855.408C785.254 851.174 783.443 846.045 783.05 840.021L782.985 838.842H805.312L805.443 839.497C805.879 841.549 806.883 843.338 808.455 844.866C810.07 846.35 812.122 847.529 814.61 848.402C817.098 849.231 819.87 849.646 822.925 849.646C826.112 849.646 828.84 849.231 831.11 848.402C833.423 847.529 835.213 846.35 836.479 844.866C837.745 843.382 838.377 841.658 838.377 839.693V839.628C838.377 836.965 837.221 834.914 834.907 833.473C832.594 831.989 828.665 830.723 823.122 829.676L813.431 827.777C804.09 826.031 796.975 822.888 792.086 818.348C787.241 813.765 784.818 807.85 784.818 800.604V800.539C784.818 794.471 786.433 789.211 789.663 784.759C792.893 780.263 797.324 776.793 802.955 774.348C808.629 771.86 815.068 770.616 822.27 770.616C830.171 770.616 836.893 771.795 842.437 774.152C847.981 776.465 852.258 779.739 855.27 783.973C858.326 788.207 859.985 793.183 860.247 798.902L860.312 800.277H837.985L837.919 799.556C837.657 797.461 836.85 795.672 835.497 794.187C834.143 792.703 832.354 791.547 830.127 790.717C827.901 789.888 825.348 789.473 822.467 789.473C819.542 789.473 817.054 789.888 815.002 790.717C812.951 791.547 811.379 792.681 810.288 794.122C809.241 795.519 808.717 797.112 808.717 798.902V798.967C808.717 801.499 809.874 803.507 812.187 804.991C814.501 806.475 818.189 807.697 823.252 808.658L832.943 810.491C839.665 811.757 845.187 813.547 849.508 815.86C853.83 818.174 857.038 821.12 859.133 824.699C861.229 828.235 862.276 832.535 862.276 837.598V837.664C862.276 843.949 860.705 849.406 857.562 854.033C854.419 858.66 849.879 862.239 843.943 864.771C838.006 867.259 830.87 868.503 822.532 868.503Z" fill="#040000"/>
</svg>
