<svg width="17" height="17" viewBox="0 0 17 17" fill="none" xmlns="http://www.w3.org/2000/svg">
<g clip-path="url(#clip0_14240_17440)">
<path d="M10.3025 4.03827L11.631 4.03827C12.9751 4.03827 14.0661 5.10332 14.0706 6.42004C14.0752 7.74307 12.9816 8.81798 11.631 8.81798H5.17286C3.83623 8.81798 2.75141 9.87707 2.7469 11.1864C2.74237 12.502 3.82984 13.5709 5.17286 13.5709L14.0625 13.5709M12.9146 11.8656L14.7653 13.6786L12.9146 15.4915" stroke="#858585"/>
<path d="M6.14679 5.09483L5.32193 7.60869C5.29182 7.70046 5.16201 7.70046 5.1319 7.60869L4.30704 5.09483C4.29713 5.06461 4.27342 5.04091 4.2432 5.03099L1.72935 4.20613C1.63758 4.17602 1.63758 4.04621 1.72935 4.0161L4.2432 3.19124C4.27342 3.18133 4.29713 3.15763 4.30704 3.1274L5.1319 0.613546C5.16201 0.521782 5.29182 0.521783 5.32193 0.613547L6.14679 3.1274C6.15671 3.15763 6.18041 3.18133 6.21063 3.19124L8.72449 4.0161C8.81625 4.04621 8.81625 4.17602 8.72449 4.20613L6.21063 5.03099C6.18041 5.04091 6.15671 5.06461 6.14679 5.09483Z" fill="#858585"/>
</g>
<defs>
<clipPath id="clip0_14240_17440">
<rect width="16" height="16" fill="white" transform="translate(0.234863 0.129028)"/>
</clipPath>
</defs>
</svg>
