<svg width="17" height="17" viewBox="0 0 17 17" fill="none" xmlns="http://www.w3.org/2000/svg">
<g clip-path="url(#clip0_14240_17423)">
<path d="M11.9233 5.83801C13.4028 5.83801 14.6028 7.03734 14.603 8.51672V12.6339C14.603 14.1135 13.4029 15.3126 11.9233 15.3126C10.444 15.3123 9.24463 14.1133 9.24463 12.6339L9.24463 8.51672C9.24486 7.03753 10.4442 5.83833 11.9233 5.83801ZM12.2407 5.24719H11.2407V5.20813L2.8667 5.20813L2.8667 12.1193L2.87549 12.298C2.96491 13.1763 3.70699 13.8622 4.60889 13.8624H8.60107V14.8624H4.60889C3.18898 14.8622 2.02068 13.7825 1.88037 12.3995L1.8667 12.1193L1.8667 0.944458L12.2407 0.944458V5.24719ZM11.9233 6.83801C10.9965 6.83833 10.2449 7.58982 10.2446 8.51672V12.6339C10.2446 13.561 10.9963 14.3123 11.9233 14.3126C12.8506 14.3126 13.603 13.5612 13.603 12.6339V8.51672C13.6028 7.58962 12.8505 6.83801 11.9233 6.83801ZM11.9595 7.55481C12.2875 7.55497 12.5531 7.82057 12.5532 8.14856C12.5532 8.47667 12.2875 8.74313 11.9595 8.74329C11.6313 8.74329 11.3647 8.47677 11.3647 8.14856C11.3649 7.82048 11.6314 7.55481 11.9595 7.55481ZM2.8667 4.20813L11.2407 4.20813V1.94446L2.8667 1.94446L2.8667 4.20813ZM9.31885 2.34192C9.71501 2.34195 10.0364 2.66261 10.0366 3.05872C10.0366 3.45504 9.71516 3.77646 9.31885 3.77649C8.92251 3.77649 8.60107 3.45506 8.60107 3.05872C8.60133 2.66259 8.92266 2.34192 9.31885 2.34192Z" fill="#858585"/>
</g>
<defs>
<clipPath id="clip0_14240_17423">
<rect width="16" height="16" fill="white" transform="translate(0.234863 0.129028)"/>
</clipPath>
</defs>
</svg>
