<svg width="17" height="17" viewBox="0 0 17 17" fill="none" xmlns="http://www.w3.org/2000/svg">
<path d="M6.06286 9.60334L6.06287 1.7991C6.06287 1.46773 6.3315 1.1991 6.66287 1.1991L13.7592 1.1991C14.0905 1.1991 14.3592 1.46773 14.3592 1.7991L14.3592 8.93209L14.3592 9.60334M6.06286 9.60334L6.06286 11.3149C6.06286 11.6463 6.33149 11.9149 6.66286 11.9149L13.7592 11.9149C14.0905 11.9149 14.3592 11.6463 14.3592 11.3149L14.3592 9.60334M6.06286 9.60334L14.3592 9.60334" stroke="#858585" stroke-linejoin="round"/>
<path d="M2.19281 12.8379L2.19281 4.99264C2.19281 4.66127 2.46144 4.39264 2.79281 4.39264L3.9514 4.39264M2.19281 12.8379L4.40931 12.8379M2.19281 12.8379L2.19281 14.459C2.19281 14.7903 2.46144 15.059 2.79281 15.059L9.88911 15.059C10.2205 15.059 10.4891 14.7903 10.4891 14.459L10.4891 13.6033" stroke="#858585" stroke-linejoin="round"/>
</svg>
