<svg width="17" height="17" viewBox="0 0 17 17" fill="none" xmlns="http://www.w3.org/2000/svg">
<g clip-path="url(#clip0_14240_17446)">
<path d="M14.4499 14.6136H10.1485C9.98279 14.6136 9.84848 14.4793 9.84848 14.3136V9.13487C9.84848 8.96919 9.71416 8.83487 9.54848 8.83487H6.60908C6.4434 8.83487 6.30908 8.96919 6.30908 9.13487V14.3136C6.30908 14.4793 6.17477 14.6136 6.00908 14.6136H2.31983C2.15415 14.6136 2.01983 14.4793 2.01983 14.3136L2.01983 6.36312C2.01983 6.2753 2.05831 6.19188 2.12513 6.13489L7.80034 1.29364C7.91247 1.19799 8.07747 1.19795 8.18964 1.29355L13.8701 6.13488C13.937 6.19188 13.9755 6.27533 13.9755 6.3632V7.7752V12.781" stroke="#858585"/>
</g>
<defs>
<clipPath id="clip0_14240_17446">
<rect width="16" height="16" fill="white" transform="translate(0.234863 0.129028)"/>
</clipPath>
</defs>
</svg>
