<svg width="17" height="17" viewBox="0 0 17 17" fill="none" xmlns="http://www.w3.org/2000/svg">
<g clip-path="url(#clip0_14240_17443)">
<path d="M10.7389 8.50352L12.244 10.0091L14.9926 7.2605" stroke="#858585"/>
<path d="M14.866 11.0876V12.5073C14.866 12.673 14.7317 12.8073 14.566 12.8073H9.83298C9.73697 12.8073 9.64677 12.8532 9.59032 12.9309L8.21798 14.8186C8.21187 14.827 8.19941 14.8272 8.19305 14.819M8.19305 4.40054L6.60938 3.0117C6.55466 2.96371 6.48436 2.93726 6.41158 2.93726H1.77717C1.61149 2.93726 1.47717 3.07157 1.47717 3.23726V12.5073C1.47717 12.673 1.61149 12.8073 1.77717 12.8073H6.49084C6.58373 12.8073 6.67139 12.8503 6.7282 12.9238L8.19305 14.819M8.19305 4.40054L9.71154 3.0156C9.76681 2.9652 9.83891 2.93726 9.9137 2.93726H14.566C14.7317 2.93726 14.866 3.07157 14.866 3.23726V5.00379M8.19305 4.40054V14.819" stroke="#858585"/>
</g>
<defs>
<clipPath id="clip0_14240_17443">
<rect width="16" height="16" fill="white" transform="translate(0.234863 0.129028)"/>
</clipPath>
</defs>
</svg>
