<svg width="17" height="17" viewBox="0 0 17 17" fill="none" xmlns="http://www.w3.org/2000/svg">
<g clip-path="url(#clip0_14240_17431)">
<path d="M12.2349 11.449H8.24153C7.50819 11.449 6.94152 12.0757 6.58819 12.7157C6.30849 13.2405 5.86138 13.6568 5.31794 13.8983C4.77449 14.1399 4.1659 14.1928 3.58891 14.0488C3.01191 13.9047 2.49963 13.5719 2.13349 13.1033C1.76735 12.6346 1.56838 12.0571 1.56819 11.4624C1.57486 10.9957 1.70152 10.529 1.94819 10.129" stroke="#858585" stroke-linejoin="round"/>
<path d="M4.23486 11.4624L6.32153 7.60903C6.67486 6.96236 6.3882 6.15569 5.9882 5.54236C5.79941 5.24043 5.673 4.90374 5.61644 4.55217C5.55987 4.20059 5.5743 3.84125 5.65886 3.49534C5.74342 3.14943 5.8964 2.82395 6.10879 2.53813C6.32117 2.2523 6.58865 2.0119 6.89544 1.83112C7.20224 1.65034 7.54213 1.53283 7.89507 1.48554C8.24802 1.43824 8.60686 1.46212 8.95042 1.55575C9.29399 1.64938 9.61532 1.81088 9.89546 2.03071C10.1756 2.25054 10.4089 2.52425 10.5815 2.83569" stroke="#858585" stroke-linejoin="round"/>
<path d="M8.23486 4.12903L10.3215 7.94903C10.6749 8.59569 11.5015 8.7957 12.2349 8.7957C12.9421 8.7957 13.6204 9.07665 14.1205 9.57674C14.6206 10.0768 14.9015 10.7551 14.9015 11.4624C14.9015 12.1696 14.6206 12.8479 14.1205 13.348C13.6204 13.8481 12.9421 14.129 12.2349 14.129" stroke="#858585" stroke-linejoin="round"/>
</g>
<defs>
<clipPath id="clip0_14240_17431">
<rect width="16" height="16" fill="white" transform="translate(0.234863 0.129028)"/>
</clipPath>
</defs>
</svg>
